<svg width="736" height="606" viewBox="0 0 736 606" fill="none" xmlns="http://www.w3.org/2000/svg">
<path d="M651.56 0.729248H83.7867C37.6827 0.729248 0.177368 38.2346 0.177368 84.3386V394.979C0.177368 441.083 37.6827 478.588 83.7867 478.588H459.053L627.133 605.328V478.588H651.565C697.669 478.588 735.175 441.083 735.175 394.979V84.3386C735.175 38.2399 697.669 0.729248 651.56 0.729248V0.729248ZM723.508 394.983C723.508 434.655 691.237 466.925 651.565 466.925H615.467V581.92L462.96 466.925H83.7867C44.1147 466.925 11.844 434.655 11.844 394.983V84.3426C11.844 44.6706 44.1147 12.3999 83.7867 12.3999H651.56C691.232 12.3999 723.503 44.6706 723.503 84.3426L723.508 394.983Z" fill="#1C3448"/>
<path d="M253.067 220.347C229.911 220.347 211.083 239.185 211.083 262.331C211.083 285.476 229.921 304.315 253.067 304.315C276.212 304.315 295.051 285.476 295.051 262.331C295.051 239.185 276.217 220.347 253.067 220.347ZM253.067 292.659C236.353 292.659 222.749 279.055 222.749 262.341C222.749 245.628 236.353 232.024 253.067 232.024C269.78 232.024 283.384 245.628 283.384 262.341C283.384 279.055 269.785 292.659 253.067 292.659Z" fill="#1C3448"/>
<path d="M367.573 220.347C344.417 220.347 325.589 239.185 325.589 262.331C325.589 285.476 344.428 304.315 367.573 304.315C390.719 304.315 409.557 285.476 409.557 262.331C409.557 239.185 390.724 220.347 367.573 220.347ZM367.573 292.659C350.86 292.659 337.256 279.055 337.256 262.341C337.256 245.628 350.86 232.024 367.573 232.024C384.287 232.024 397.891 245.628 397.891 262.341C397.891 279.055 384.292 292.659 367.573 292.659Z" fill="#1C3448"/>
<path d="M482.12 220.347C458.964 220.347 440.136 239.185 440.136 262.331C440.136 285.476 458.975 304.315 482.12 304.315C505.265 304.315 524.104 285.476 524.104 262.331C524.104 239.185 505.265 220.347 482.12 220.347ZM482.12 292.659C465.407 292.659 451.803 279.055 451.803 262.341C451.803 245.628 465.407 232.024 482.12 232.024C498.833 232.024 512.437 245.628 512.437 262.341C512.437 279.055 498.833 292.659 482.12 292.659Z" fill="#1C3448"/>
</svg>
