<svg width="681" height="635" viewBox="0 0 681 635" fill="none" xmlns="http://www.w3.org/2000/svg">
<path d="M356.16 187.84C345.775 187.84 335.701 185.798 326.223 181.788C317.066 177.923 308.837 172.366 301.78 165.309C294.723 158.252 289.181 150.028 285.301 140.866C281.291 131.387 279.265 121.325 279.265 110.94C279.265 100.554 281.291 90.4812 285.301 81.0025C289.182 71.8462 294.723 63.6172 301.78 56.5438C308.837 49.4865 317.061 43.9293 326.223 40.0492C335.702 36.0388 345.78 34.0128 356.16 34.0128C366.545 34.0128 376.619 36.0388 386.097 40.0492C395.254 43.9294 403.493 49.4866 410.556 56.5438C417.629 63.6168 423.171 71.8412 427.051 81.0025C431.061 90.4817 433.087 100.56 433.087 110.94C433.087 121.325 431.061 131.388 427.051 140.866C423.17 150.023 417.613 158.252 410.556 165.309C403.483 172.367 395.259 177.924 386.097 181.788C376.623 185.798 366.545 187.84 356.16 187.84ZM356.16 42.7733C337.963 42.7733 320.837 49.8618 307.963 62.7373C295.098 75.628 288.015 92.748 288.015 110.951C288.015 129.139 295.103 146.257 307.963 159.133C320.838 172.008 337.963 179.097 356.16 179.097C374.357 179.097 391.483 172.009 404.373 159.133C417.248 146.258 424.337 129.149 424.352 110.951C424.336 92.7533 417.248 75.628 404.373 62.7373C391.483 49.857 374.363 42.7733 356.16 42.7733Z" fill="#1C3448"/>
<path d="M424.307 96.96H423.999C413.385 96.96 403.073 94.8297 393.39 90.6162C384.041 86.5485 375.687 80.7569 368.583 73.3762C366.964 71.6992 366.948 69.0585 368.526 67.3658C374.87 60.5117 379.667 52.5632 382.761 43.7258C383.167 42.5748 384.058 41.6269 385.198 41.1425C386.323 40.6737 387.646 40.705 388.756 41.2154C398.849 45.9706 407.974 52.9966 415.152 61.5594C422.485 70.3406 427.678 80.3874 430.578 91.4394C430.912 92.6946 430.651 94.0801 429.88 95.1269C429.109 96.1789 427.87 96.8457 426.568 96.9081C425.781 96.9602 425.037 96.9602 424.307 96.9602L424.307 96.96ZM377.744 70.1106C389.452 80.9024 404.593 87.288 420.416 88.1213C414.843 72.476 403.776 59.392 389.208 51.2826C386.317 58.0952 382.453 64.4233 377.744 70.1106H377.744Z" fill="#1C3448"/>
<path d="M318.427 98.1066C307.036 98.1066 296.072 95.6588 285.848 90.8462C283.822 89.8827 282.843 87.5493 283.588 85.4348C286.197 78.0285 289.916 71.0708 294.655 64.7681C299.338 58.5285 304.921 53.0598 311.249 48.4921C324.389 39.0129 339.921 34.0134 356.166 34.0134C367.525 34.0134 378.478 36.4353 388.729 41.2322C390.77 42.1958 391.749 44.5134 391.005 46.6437C388.411 54.0656 384.692 61.0237 379.953 67.321C375.27 73.5606 369.687 79.045 363.359 83.613C350.234 93.087 334.687 98.1077 318.427 98.1077L318.427 98.1066ZM293.301 84.544C301.291 87.7366 309.749 89.3565 318.427 89.3565C345.957 89.3565 370.62 72.9498 381.296 47.5445C373.291 44.3674 364.832 42.7633 356.171 42.7633H356.139C328.634 42.7633 303.989 59.154 293.301 84.5446L293.301 84.544Z" fill="#1C3448"/>
<path d="M490.933 330.16H281.653C279.247 330.16 277.278 328.207 277.278 325.801C277.278 323.379 279.247 321.426 281.653 321.426H486.56V250.608L401.289 213.452L356.096 253.879C354.45 255.353 351.737 255.296 350.148 253.764L308.325 213.514L223.159 250.612V321.43H223.32C225.727 321.43 227.695 323.383 227.695 325.805C227.695 328.18 225.831 330.107 223.435 330.164H223.32H218.784C217.633 330.164 216.508 329.695 215.69 328.893C214.872 328.076 214.409 326.94 214.409 325.8V247.748C214.409 246.013 215.445 244.435 217.049 243.737L307.497 204.321C309.102 203.623 311.029 203.972 312.279 205.181L353.3 244.644L397.56 205.066C398.815 203.941 400.664 203.639 402.211 204.321L492.67 243.737C494.274 244.425 495.31 245.997 495.31 247.747V325.799C495.31 326.966 494.842 328.06 494.029 328.893C493.196 329.706 492.102 330.159 490.935 330.159L490.933 330.16ZM252.48 330.16C250.074 330.16 248.105 328.207 248.105 325.801C248.105 323.379 250.074 321.426 252.48 321.426C254.886 321.426 256.855 323.379 256.855 325.801C256.855 328.207 254.886 330.16 252.48 330.16Z" fill="#1C3448"/>
<path d="M403.12 264.213H306.579C305.381 264.213 304.23 263.719 303.402 262.859C302.568 261.969 302.146 260.833 302.204 259.62L304.87 208.098C304.985 205.708 307.027 203.838 309.464 203.958C311.87 204.088 313.724 206.145 313.605 208.551L311.183 255.469H398.595L397.006 208.875C396.933 206.469 398.829 204.443 401.236 204.355C403.642 204.25 405.668 206.162 405.756 208.584L407.491 259.698C407.522 260.881 407.085 262.047 406.267 262.891C405.454 263.735 404.303 264.214 403.121 264.214L403.12 264.213Z" fill="#1C3448"/>
<path d="M354.36 253.907H352.131C350.995 253.907 349.928 253.469 349.1 252.683L318.272 223.047C317.412 222.229 316.928 221.078 316.928 219.896V174.5C316.928 172.968 317.746 171.526 319.074 170.739C320.386 169.968 322.079 169.937 323.407 170.666C333.527 176.224 344.552 179.036 356.178 179.036C367.042 179.036 377.38 176.572 386.932 171.729C388.261 171.057 389.922 171.114 391.193 171.906C392.49 172.692 393.276 174.125 393.276 175.64V218.692C393.276 219.932 392.75 221.13 391.818 221.958L357.271 252.786C356.459 253.51 355.427 253.906 354.36 253.906L354.36 253.907ZM325.677 218.032L353.313 244.589L384.521 216.735V182.407C375.521 185.98 365.985 187.787 356.172 187.787H356.141C345.568 187.787 335.318 185.672 325.677 181.516L325.672 218.032L325.677 218.032Z" fill="#1C3448"/>
<path d="M645.147 360.44H176.84C174.418 360.44 172.465 358.487 172.465 356.065C172.465 353.659 174.418 351.69 176.84 351.69H640.773V330.163H633.351C633.351 330.179 633.351 330.179 633.336 330.179C630.93 330.179 628.961 328.21 628.961 325.804C628.961 323.382 630.93 321.429 633.336 321.429H645.148C646.299 321.429 647.435 321.898 648.253 322.7C649.07 323.518 649.534 324.653 649.534 325.804V356.064C649.534 357.231 649.065 358.34 648.253 359.168C647.424 359.986 646.331 360.439 645.148 360.439L645.147 360.44ZM147.667 360.44C145.245 360.44 143.292 358.487 143.292 356.065C143.292 353.659 145.245 351.69 147.667 351.69C150.073 351.69 152.042 353.659 152.042 356.065C152.042 358.487 150.073 360.44 147.667 360.44ZM118.5 360.44H64.5827C63.4316 360.44 62.3067 359.976 61.4889 359.169C60.6712 358.351 60.2077 357.216 60.2077 356.065V325.805C60.2077 324.654 60.6764 323.519 61.4889 322.701C62.3066 321.883 63.4264 321.43 64.5827 321.43H574.996C577.418 321.43 579.371 323.383 579.371 325.805C579.371 328.211 577.418 330.164 574.996 330.164H68.956V351.691H118.497C120.904 351.691 122.872 353.66 122.872 356.066C122.872 358.342 121.091 360.264 118.831 360.441H118.497L118.5 360.44ZM604.167 330.164C601.76 330.164 599.792 328.211 599.792 325.805C599.792 323.383 601.761 321.43 604.167 321.43C606.589 321.43 608.542 323.383 608.542 325.805C608.542 328.211 606.589 330.164 604.167 330.164Z" fill="#1C3448"/>
<path d="M149.773 481.907C135.44 481.907 121.976 476.323 111.841 466.188C101.722 456.053 96.1333 442.579 96.1333 428.229C96.1333 413.907 101.717 400.432 111.841 390.312C121.977 380.177 135.435 374.604 149.773 374.604C164.107 374.604 177.585 380.177 187.721 390.297C197.872 400.433 203.456 413.907 203.456 428.229C203.456 442.579 197.873 456.052 187.721 466.203C177.586 476.322 164.107 481.905 149.773 481.905V481.907ZM149.773 383.339C125.071 383.396 104.929 403.521 104.888 428.224C104.93 452.959 125.071 473.109 149.773 473.156C174.508 473.114 194.659 452.959 194.705 428.224C194.658 403.521 174.508 383.396 149.773 383.339V383.339Z" fill="#1C3448"/>
<path d="M241.36 578.613H56.4533C55.3023 578.613 54.1773 578.144 53.3596 577.332C52.5419 576.53 52.0783 575.395 52.0783 574.238V521.228C52.0783 519.493 53.0992 517.915 54.7034 517.217L116.13 490.415C117.734 489.717 119.661 490.066 120.927 491.274L147.864 517.201L176.974 491.154C178.229 490.029 180.093 489.737 181.64 490.409L243.11 517.212C244.714 517.91 245.735 519.488 245.735 521.222V574.233C245.735 575.4 245.282 576.509 244.453 577.327C243.631 578.16 242.521 578.613 241.355 578.613L241.36 578.613ZM60.84 569.863H236.987V524.103L180.711 499.562L150.684 526.437C149.038 527.911 146.325 527.853 144.736 526.322L116.971 499.603L60.8348 524.098L60.84 569.863Z" fill="#1C3448"/>
<path d="M148.56 526.813H147.029C145.893 526.813 144.81 526.376 143.998 525.589L123.071 505.433C122.227 504.616 121.743 503.465 121.743 502.282V471.454C121.743 469.907 122.56 468.465 123.889 467.678C125.201 466.907 126.894 466.876 128.222 467.621C134.753 471.225 142.206 473.121 149.774 473.121C156.935 473.121 163.733 471.501 170.003 468.324C171.331 467.637 173.009 467.71 174.274 468.486C175.555 469.288 176.357 470.715 176.357 472.22V501.485C176.357 502.725 175.831 503.923 174.899 504.735L151.478 525.705C150.676 526.423 149.639 526.814 148.561 526.814L148.56 526.813ZM130.477 500.433L147.873 517.188L167.603 499.527V478.833C161.9 480.844 155.905 481.865 149.769 481.865C143.103 481.865 136.613 480.672 130.477 478.307V500.433Z" fill="#1C3448"/>
<path d="M355.76 481.907C341.427 481.907 327.948 476.323 317.812 466.199C307.677 456.048 302.093 442.573 302.077 428.225C302.093 413.903 307.676 400.428 317.812 390.308C327.948 380.172 341.421 374.6 355.76 374.6C370.093 374.6 383.557 380.173 393.692 390.308C403.812 400.428 409.4 413.901 409.4 428.225C409.4 442.575 403.817 456.048 393.692 466.184C383.557 476.325 370.093 481.908 355.76 481.908V481.907ZM355.76 383.339C331.041 383.396 310.885 403.521 310.828 428.224C310.885 452.959 331.041 473.109 355.76 473.156C380.463 473.114 400.604 452.959 400.645 428.224C400.604 403.521 380.463 383.396 355.76 383.339Z" fill="#1C3448"/>
<path d="M447.307 578.613H262.387C261.236 578.613 260.111 578.145 259.293 577.332C258.475 576.514 258.012 575.395 258.012 574.238V521.228C258.012 519.493 259.048 517.915 260.637 517.217L322.121 490.415C323.709 489.717 325.652 490.066 326.902 491.274L353.839 517.201L382.902 491.17C384.157 490.035 386.022 489.743 387.569 490.41L449.053 517.212C450.641 517.91 451.678 519.488 451.678 521.223V574.233C451.678 575.4 451.209 576.509 450.396 577.327C449.563 578.16 448.469 578.613 447.303 578.613L447.307 578.613ZM266.76 569.863H442.92V524.103L386.644 499.562L356.644 526.437C354.998 527.911 352.3 527.864 350.696 526.322L322.931 499.603L266.753 524.103L266.76 569.863Z" fill="#1C3448"/>
<path d="M354.507 526.813H352.991C351.856 526.813 350.772 526.376 349.944 525.589L329.032 505.433C328.173 504.616 327.688 503.465 327.688 502.282V471.454C327.688 469.907 328.506 468.465 329.834 467.678C331.147 466.907 332.84 466.876 334.178 467.621C340.699 471.225 348.162 473.121 355.762 473.121C362.877 473.121 369.689 471.501 376.002 468.308C377.33 467.637 378.992 467.71 380.262 468.486C381.575 469.303 382.351 470.689 382.351 472.22V501.485C382.351 502.725 381.825 503.923 380.893 504.751L357.429 525.71C356.621 526.423 355.585 526.814 354.507 526.814V526.813ZM336.439 500.433L353.84 517.188L373.6 499.527V478.833C367.881 480.844 361.892 481.865 355.767 481.865C349.09 481.865 342.584 480.672 336.444 478.307L336.439 500.433Z" fill="#1C3448"/>
<path d="M561.72 481.907C547.387 481.907 533.908 476.323 523.788 466.188C513.653 456.052 508.08 442.579 508.08 428.229C508.08 413.907 513.653 400.432 523.788 390.312C533.908 380.176 547.387 374.593 561.72 374.593C576.053 374.593 589.543 380.177 599.679 390.312C609.798 400.432 615.387 413.905 615.387 428.229C615.387 442.579 609.814 456.068 599.679 466.188C589.548 476.323 576.059 481.907 561.72 481.907ZM561.72 383.339C537.017 383.38 516.876 403.521 516.835 428.224C516.876 452.959 537.017 473.109 561.72 473.156C586.439 473.114 606.595 452.959 606.637 428.224C606.596 403.521 586.44 383.38 561.72 383.339Z" fill="#1C3448"/>
<path d="M653.307 578.613H468.387C467.236 578.613 466.111 578.145 465.293 577.332C464.475 576.53 464.012 575.395 464.012 574.238V521.228C464.012 519.493 465.048 517.915 466.637 517.233L528.074 490.415C529.663 489.718 531.605 490.067 532.855 491.275L559.803 517.202L588.897 491.155C590.152 490.03 592.016 489.738 593.563 490.41L655.047 517.227C656.636 517.915 657.672 519.488 657.672 521.222V574.233C657.672 575.4 657.219 576.509 656.391 577.327C655.563 578.16 654.469 578.613 653.303 578.613L653.307 578.613ZM472.76 569.863H648.92V524.103L592.644 499.562L562.603 526.437C560.967 527.911 558.243 527.853 556.655 526.322L528.889 499.603L472.753 524.098L472.76 569.863Z" fill="#1C3448"/>
<path d="M560.507 526.813H558.975C557.84 526.813 556.757 526.376 555.928 525.589L535.016 505.433C534.157 504.616 533.673 503.465 533.673 502.282V471.454C533.673 469.907 534.49 468.465 535.819 467.678C537.131 466.907 538.824 466.876 540.162 467.621C546.683 471.225 554.146 473.121 561.714 473.121C568.845 473.121 575.668 471.501 581.985 468.308C583.313 467.637 584.975 467.709 586.245 468.496C587.558 469.298 588.334 470.683 588.334 472.215V501.48C588.334 502.72 587.808 503.918 586.876 504.746L563.428 525.704C562.605 526.423 561.568 526.814 560.506 526.814L560.507 526.813ZM542.424 500.433L559.825 517.188L579.585 499.527V478.833C573.867 480.844 567.846 481.865 561.721 481.865C555.055 481.865 548.565 480.672 542.429 478.307L542.424 500.433Z" fill="#1C3448"/>
<path d="M596.293 330.187C595.887 330.187 595.476 330.129 595.085 330.01C593.96 329.687 593.028 328.947 592.476 327.911C591.908 326.89 591.778 325.708 592.095 324.588C598.543 302.276 601.793 279.145 601.793 255.828C601.809 157.406 543.46 68.4677 453.18 29.2277C451.56 28.5298 450.529 26.936 450.539 25.1756C450.555 24.5922 450.67 24.0245 450.904 23.4829C451.602 21.8788 453.18 20.8422 454.93 20.8422C455.529 20.8422 456.112 20.9724 456.664 21.2068C479.123 30.962 500.066 43.9148 518.919 59.6908C537.627 75.3681 554.007 93.5975 567.57 113.884C595.684 155.941 610.548 205.015 610.548 255.817C610.548 279.968 607.179 303.911 600.517 327.015C599.975 328.864 598.241 330.176 596.298 330.176L596.293 330.187ZM113.44 330.187C111.513 330.187 109.779 328.89 109.242 327.02C102.549 303.963 99.164 280.02 99.164 255.823C99.164 221.301 105.914 187.823 119.257 156.307C125.658 141.156 133.591 126.541 142.841 112.864C151.987 99.3333 162.487 86.5986 174.065 75.036C185.628 63.4578 198.377 52.9573 211.909 43.812C225.576 34.5828 240.201 26.6453 255.352 20.244C286.868 6.89997 320.352 0.150635 354.868 0.150635C370.019 0.150635 385.185 1.47876 399.961 4.11944C402.336 4.54132 403.93 6.8173 403.503 9.18197C403.081 11.5309 400.789 13.1508 398.43 12.7236C384.154 10.1872 369.513 8.90064 354.873 8.90064C288.925 8.90064 226.903 34.5833 180.259 81.218C133.609 127.869 107.926 189.879 107.926 255.818C107.926 279.182 111.192 302.307 117.666 324.578C117.989 325.703 117.853 326.88 117.285 327.901C116.733 328.922 115.796 329.667 114.676 330C114.28 330.125 113.869 330.182 113.447 330.182L113.44 330.187ZM427.533 19.56C427.111 19.56 426.69 19.5027 426.278 19.3725C425.153 19.0391 424.237 18.2944 423.684 17.2579C423.132 16.2215 423.012 15.0391 423.351 13.9194C424.023 11.6902 426.528 10.3153 428.804 11.0027C431.106 11.7007 432.419 14.1538 431.721 16.4558C431.169 18.2891 429.445 19.5599 427.533 19.5599V19.56Z" fill="#1C3448"/>
<path d="M478.187 610.827H23.16C20.7381 610.827 18.785 608.858 18.785 606.452C18.785 604.03 20.7381 602.077 23.16 602.077H478.187C480.593 602.077 482.562 604.03 482.562 606.452C482.562 608.858 480.593 610.827 478.187 610.827Z" fill="#1C3448"/>
<path d="M604.48 634.52H289.613C287.207 634.52 285.238 632.567 285.238 630.145C285.238 627.739 287.207 625.77 289.613 625.77H604.48C606.902 625.77 608.855 627.739 608.855 630.145C608.855 632.567 606.902 634.52 604.48 634.52Z" fill="#1C3448"/>
<path d="M676.08 634.52H636.736C634.33 634.52 632.361 632.567 632.361 630.145C632.361 627.739 634.33 625.77 636.736 625.77H676.08C678.486 625.77 680.455 627.739 680.455 630.145C680.455 632.567 678.486 634.52 676.08 634.52Z" fill="#1C3448"/>
<path d="M154.453 633.787H5.25333C2.84706 633.787 0.878387 631.834 0.878387 629.427C0.878387 627.006 2.84719 625.052 5.25333 625.052H154.453C156.86 625.052 158.828 627.006 158.828 629.427C158.828 631.834 156.859 633.787 154.453 633.787Z" fill="#1C3448"/>
</svg>
