<svg width="526" height="617" viewBox="0 0 526 617" fill="none" xmlns="http://www.w3.org/2000/svg">
<path d="M62.7867 383.333C63.6253 383.953 64.6722 384.224 65.7034 384.094C68.1148 384.047 70.417 385.068 72.0055 386.88C72.4378 387.359 72.7764 387.896 73.641 387.776C78.4795 387.266 83.3754 387.661 88.0677 388.943C89.2343 389.213 89.677 389.094 89.7031 387.776C89.9479 375.922 91.3125 364.151 92.4427 352.369C93.6094 340.4 95.1979 328.489 96.6563 316.552C98.5105 301.385 100.823 286.38 103.74 271.427C106.073 259.458 108.698 247.547 111.162 235.599H111.156C111.792 232.755 112.245 229.875 112.51 226.974C112.51 226.369 112.661 225.807 112.068 225.317C109.677 223.244 108.484 220.109 108.896 216.968C109.037 212.171 109.234 207.364 109.828 202.619V202.614C110.385 199.499 108.927 196.369 106.188 194.786C93.9011 186.374 84.7915 174.083 80.3128 159.879C78.1878 152.369 78.9118 144.338 82.344 137.327C87.7295 126.754 94.8492 117.16 103.412 108.942C110.277 101.405 118.917 95.7073 128.552 92.379C130.234 91.853 131.938 91.4363 133.651 90.9572C133.417 90.2124 132.719 90.0145 132.214 89.6134H132.219C118.917 79.4676 109.968 64.6494 107.183 48.1601C104.73 36.5038 107.396 24.3574 114.495 14.7961C121.422 5.5253 132.495 0.290761 144.053 0.826761C155.61 1.36843 166.151 7.60276 172.189 17.4774C179.834 29.3629 181.959 43.9774 178.022 57.5508C175.012 70.3685 167.886 81.8428 157.73 90.2174C156.725 91.0351 156.891 91.6549 157.568 92.457C158.626 93.6445 159.985 94.5196 161.501 94.9882C163.834 95.8163 166.167 96.5976 168.501 97.4622C177.459 100.66 184.094 108.306 186.001 117.624C186.386 119.275 186.964 120.879 187.725 122.394C191.225 129.124 194.527 135.973 198.537 142.416H198.542C206.891 156.254 220.969 165.661 236.949 168.082C239.965 168.468 243.001 168.64 246.038 168.598C248.631 168.39 251.194 169.244 253.147 170.963C255.095 172.687 256.267 175.124 256.387 177.718C256.694 181.296 255.413 184.827 252.887 187.379C248.558 192.468 241.699 194.634 235.236 192.957C234.033 192.733 232.856 192.379 231.736 191.895C220.455 187.093 209.439 181.697 198.731 175.723C194.835 173.192 191.137 170.379 187.658 167.301C187.538 169.15 187.637 171.004 187.949 172.832C188.606 184.744 190.85 196.515 194.621 207.832C195.205 209.369 195.548 210.983 195.637 212.624C195.897 215.244 194.501 217.744 192.137 218.9C191.257 219.285 190.699 220.171 190.736 221.129C189.757 231.712 189.392 242.337 188.673 252.941C187.809 265.67 187.064 278.4 186.199 291.129C185.465 301.968 184.704 312.817 183.866 323.656C182.564 350.536 178.262 377.186 171.033 403.109C168.512 410.531 168.512 418.578 171.033 426C171.611 427.791 171.965 429.646 172.085 431.526C172.6 434.182 171.564 436.901 169.402 438.536C167.246 440.166 164.345 440.427 161.934 439.203C159.074 437.979 156.548 436.088 154.569 433.687C150.152 428.317 147.324 421.818 146.402 414.927C143.689 398.802 142.658 382.438 143.314 366.099C143.783 340.433 144.225 314.709 144.152 289.006V289.011C144.184 288.386 144.111 287.761 143.934 287.167C135.147 322.506 123.715 357.167 116.866 393.183C118.756 392.621 120.366 391.735 122.116 391.397C127.121 390.069 132.303 392.855 133.954 397.767C135.558 401.381 136.006 405.402 135.235 409.277C134.465 413.157 132.522 416.699 129.663 419.433C125.985 422.913 121.694 425.683 117.006 427.6C115.689 428.147 115.418 428.767 115.907 430.027V430.022C116.673 431.933 117.345 433.881 117.912 435.855C118.225 437.022 118.626 437.246 119.793 436.814C123.027 435.558 126.454 434.876 129.918 434.798C135.084 434.699 140.069 436.673 143.767 440.277C146.043 442.558 148.173 444.98 150.147 447.522C153.726 451.767 158.127 455.241 163.09 457.72C165.538 458.808 167.882 460.121 170.09 461.642C170.835 462.215 171.127 461.85 171.502 461.293C172.408 459.923 173.439 458.647 174.59 457.475C175.022 457.043 175.455 456.6 175.918 456.215H175.923C178.387 453.558 182.184 452.6 185.616 453.767C188.981 455.303 191.074 458.73 190.913 462.423C191.142 465.949 190.684 469.486 189.569 472.84C187.09 481.954 181.486 489.913 173.741 495.324C170.658 497.516 167.122 498.985 163.392 499.626C160.674 500.355 157.773 499.584 155.767 497.61C153.762 495.631 152.95 492.746 153.637 490.016C153.892 489.272 153.83 488.464 153.476 487.766C153.121 487.069 152.496 486.548 151.746 486.313C149.637 485.251 147.71 483.829 145.689 482.589L145.694 482.595C142.09 480.308 137.616 479.871 133.642 481.428C127.882 483.886 122.402 486.964 117.309 490.61C116.97 490.86 116.699 491.194 116.528 491.579C112.804 498.449 107.491 504.329 101.033 508.724C88.8088 518.193 74.2102 524.115 58.8448 525.844C51.4542 527.115 43.8448 526.001 37.1315 522.652C30.4179 519.308 24.944 513.907 21.5115 507.236C19.3604 503.293 17.4645 499.22 15.8448 495.033C15.5323 494.272 15.2615 493.704 14.2459 493.595C11.1834 493.309 8.61043 491.168 7.78229 488.204C6.65208 484.616 5.75629 480.954 5.10002 477.251C2.48029 466.574 0.881221 455.667 0.324021 444.689C-0.967646 421.882 5.29803 399.282 18.152 380.391C20.6624 376.725 23.725 373.469 27.2302 370.735C28.001 370.152 28.2197 369.803 27.4645 368.949C18.0635 358.563 14.4124 344.199 17.7197 330.589C19.7405 323.031 22.5895 315.725 26.2145 308.797C29.5115 303.307 34.5063 299.047 40.4439 296.651C46.3813 294.26 52.9335 293.87 59.1159 295.541C65.2981 297.739 70.5689 301.943 74.0945 307.474C78.8445 314.776 81.9383 323.036 83.1467 331.662C85.2092 343.261 84.2717 355.192 80.4175 366.323C79.4175 369.203 78.0581 371.948 76.3705 374.49C73.3132 379.245 68.3705 382.464 62.7865 383.333L62.7867 383.333ZM164.125 431.703C164.25 430.421 164.058 429.125 163.563 427.932C161.683 422.276 161.027 416.276 161.651 410.344C162.204 406.682 163 403.068 164.042 399.516C168.401 384.718 171.48 369.578 173.25 354.261C174.709 341.662 175.828 329.026 176.75 316.365C177.917 299.761 179.141 283.172 180.25 266.573C181.23 251.792 182.058 236.985 183.006 222.24C183.089 221.073 182.808 220.771 181.698 220.735C175.979 220.526 170.334 219.682 164.652 219.099C157.964 219.38 152.251 214.318 151.725 207.646C151.662 207.287 151.584 206.932 151.49 206.583C151.266 205.932 151.631 204.927 150.324 204.88C149.016 204.834 148.949 205.427 148.631 206.328C147.615 209.979 144.766 212.828 141.12 213.849C140.162 213.969 139.438 214.766 139.417 215.729C138.855 221.193 134.678 225.589 129.256 226.427C126.766 226.985 124.219 227.281 121.673 227.302C120.704 227.302 120.298 227.615 120.157 228.63C119.178 236.026 117.589 243.328 115.943 250.6C110.068 277.214 105.62 304.121 102.62 331.209C101.386 341.87 100.173 352.548 99.1204 363.245C98.2454 372.578 97.4278 381.912 97.2402 391.245C97.1152 392.339 97.7141 393.386 98.7245 393.834C100.766 394.901 102.719 396.146 104.558 397.542C106.469 399.115 108.058 398.193 108.433 395.875C110.245 385.912 112.365 376.006 114.792 366.162C122.131 336.798 130.552 307.724 138.125 278.427H138.12C139.329 273.162 140.969 268.005 143.032 263.015C143.714 260.76 145.922 259.333 148.261 259.63C150.324 260.015 151.6 261.718 151.902 264.484H151.896C152.183 269.697 152.183 274.926 151.896 280.14C151.792 308.817 151.605 337.494 151.001 366.161C150.35 381.582 151.256 397.036 153.709 412.276C154.323 417.724 156.277 422.932 159.391 427.442C160.652 429.177 162.266 430.63 164.126 431.703L164.125 431.703ZM158.292 165.636C157.693 176.063 157.636 186.521 158.131 196.959C158.297 200.479 158.797 203.974 159.62 207.401C159.948 209.459 161.672 211 163.75 211.099C168.219 211.542 172.678 212.115 177.146 212.625C180.162 212.995 183.204 213.063 186.235 212.823C187.636 212.693 188.146 212.25 187.61 210.761C184.016 200.37 181.751 189.567 180.881 178.605C179.537 166.714 179.047 154.741 179.407 142.777C179.964 136.115 179.902 129.413 179.224 122.761C178.954 118.599 177.438 114.615 174.876 111.333C172.308 108.047 168.808 105.615 164.839 104.349C163.068 103.745 161.339 103.182 159.495 102.552C155.834 101.511 152.683 99.1615 150.641 95.948C150.126 95.1303 149.636 95.1668 148.844 95.4012C146.766 96.0939 144.6 96.4897 142.412 96.5678C141.928 96.5522 141.454 96.7501 141.12 97.1043C140.292 97.8439 139.23 98.2553 138.12 98.2709C130.646 99.0782 123.558 101.985 117.667 106.656C111.427 111.516 105.787 117.089 100.855 123.271C96.5373 128.297 92.8238 133.818 89.8081 139.724C86.6988 145.667 86.0841 152.61 88.105 159.006C92.2665 170.787 99.9957 180.984 110.214 188.172C117.084 193.537 124.553 198.136 131.788 203.047C133.465 204.255 135.324 205.188 137.293 205.813C138.283 206.188 139.397 206.037 140.257 205.417C141.111 204.792 141.6 203.781 141.553 202.724C141.564 201.443 141.225 200.183 140.569 199.084C138.21 195.104 135.027 191.672 131.236 189.016C127.116 186.11 122.788 183.511 118.288 181.229C111.283 177.604 106.272 171.021 104.637 163.303C103.205 158.605 103.34 153.563 105.023 148.948C106.705 144.334 109.846 140.396 113.97 137.724C114.871 137.229 115.439 136.292 115.465 135.266C115.778 131.391 116.116 127.531 116.538 123.667C116.663 121.682 118.319 120.146 120.309 120.167C122.283 120.141 123.923 121.693 124.007 123.667C124.069 124.151 124.09 124.641 124.075 125.125C123.84 130.094 123.34 135.052 122.627 139.989C121.147 150.197 119.746 160.426 119.127 170.744C118.929 171.89 119.528 173.03 120.585 173.52C124.554 175.749 128.517 177.989 132.392 180.379C133.918 181.322 133.991 180.775 134.049 179.41C134.429 166.353 135.658 153.337 137.726 140.441C139.21 130.66 141.502 121.02 144.575 111.613C145.049 110.035 145.845 108.571 146.908 107.311C147.861 106.118 149.377 105.514 150.887 105.728C152.403 105.941 153.689 106.936 154.278 108.347C154.814 109.571 155.158 110.868 155.293 112.196C158.137 129.858 159.127 147.764 158.247 165.634L158.292 165.636ZM7.93205 438.796C7.9581 446.062 8.54663 453.323 9.70285 460.493C11.031 468.389 12.7602 476.223 14.5102 484.035C14.8696 485.634 15.5935 486.123 17.1925 485.608C19.0935 485.003 21.0518 484.535 23.0258 484.066C33.0727 481.639 43.3125 480.295 53.3591 478.233V478.238C61.255 476.936 68.6404 473.488 74.7138 468.274C77.8388 466.04 78.7763 461.8 76.8804 458.451C75.2502 454.925 73.4378 451.483 71.4586 448.139C71.219 447.639 70.7034 447.326 70.1513 447.347C63.6877 446.863 57.5158 444.456 52.4273 440.441C44.495 434.18 37.6246 426.67 32.094 418.217C31.37 417.285 31.1096 416.081 31.3804 414.936C31.6408 413.587 32.6669 412.514 34.0055 412.196C35.6513 411.759 37.3909 412.425 38.3232 413.852C40.4691 416.561 42.4899 419.384 44.6929 422.019C48.7971 427.467 53.8284 432.149 59.5569 435.852C63.5309 438.628 68.3903 439.826 73.1929 439.227C76.4377 438.665 77.719 437.701 77.6618 434.29C77.542 427.368 76.7086 420.478 75.1773 413.722C74.7242 411.133 72.7189 409.092 70.1409 408.592C65.5524 407.414 61.068 405.852 56.7449 403.925C55.3231 403.388 53.9897 402.633 52.8023 401.68C51.4273 400.534 51.0731 398.566 51.9742 397.013C52.8492 395.482 54.6668 394.753 56.3596 395.253C57.0523 395.472 57.7242 395.753 58.3648 396.097C61.2867 397.44 64.2815 398.633 67.3284 399.664C68.5784 400.133 68.8544 399.664 68.5524 398.498C68.2503 397.331 67.9118 396.034 67.6201 394.8C67.3753 392.8 65.5889 391.347 63.5837 391.519C59.2034 391.508 55.3754 388.566 54.2504 384.336C54.0993 383.623 53.4899 383.102 52.766 383.06C46.6409 382.008 40.8285 379.618 35.7353 376.06C34.8707 375.274 33.5374 375.3 32.6989 376.123C28.4229 379.451 24.803 383.555 22.0374 388.222C12.8292 403.482 7.95475 420.967 7.93342 438.795L7.93205 438.796ZM172.105 45.8226C172.454 36.7601 169.913 27.8173 164.84 20.296C159.913 13.1605 151.876 8.81158 143.214 8.58238C134.548 8.34801 126.293 12.2699 120.996 19.1293C115.371 26.4157 113.027 35.7133 114.517 44.796C116.464 60.9627 125.282 75.504 138.714 84.708C145.422 89.5361 146.297 89.7601 153.006 84.1455C164.49 74.6351 171.422 60.7188 172.105 45.8228L172.105 45.8226ZM76.3707 343.049C76.402 339.888 76.152 336.721 75.6103 333.601C74.6207 325.93 71.9644 318.565 67.8291 312.028C65.2822 307.424 60.9698 304.059 55.8864 302.705C50.8031 301.351 45.3916 302.127 40.8918 304.856C39.5689 305.554 38.4282 306.554 37.5532 307.773C33.1939 313.617 29.6887 320.049 27.1366 326.882C24.4543 333.059 23.647 339.882 24.8032 346.518C26.048 353.534 29.371 360.018 34.3344 365.133C39.3032 370.253 45.6834 373.763 52.6624 375.216C56.7458 376.899 61.3655 376.669 65.2614 374.586C69.1572 372.503 71.9176 368.789 72.7874 364.461C75.3134 357.612 76.527 350.352 76.3707 343.049L76.3707 343.049ZM54.0374 518.383C62.6729 518.112 71.1681 516.127 79.0267 512.549C89.3393 508.43 98.5534 501.966 105.944 493.675C108.475 490.966 110.168 487.586 110.819 483.94C111.465 480.289 111.048 476.534 109.605 473.117C107.616 466.711 102.928 461.492 96.7721 458.825C95.4961 458.252 94.1159 457.945 92.7148 457.93C89.0585 457.836 85.944 460.575 85.5741 464.216C84.4647 469.455 81.246 474.008 76.673 476.794C68.5533 482.304 59.241 485.82 49.501 487.049C41.2041 488.528 32.8397 489.685 24.6264 491.648C23.392 491.94 23.017 492.289 23.5899 493.575C24.9806 496.669 26.3191 499.794 27.9076 502.804V502.799C30.2358 507.685 33.9598 511.778 38.6107 514.549C43.2618 517.325 48.6315 518.659 54.0374 518.383V518.383ZM166.808 470.237C166.772 469.269 166.246 468.388 165.407 467.904C163.938 466.899 162.376 466.039 160.74 465.336C153.964 462.117 148.001 457.404 143.303 451.56C141.824 449.717 140.282 447.909 138.636 446.217C135.688 443.18 131.376 441.894 127.246 442.821C119.444 444.727 112.235 448.524 106.246 453.878C105.428 454.508 105.595 454.904 106.35 455.513C113.491 461.279 117.964 469.707 118.741 478.847C118.918 480.316 119.36 480.237 120.386 479.56C123.131 477.763 126.032 476.217 129.058 474.951C132.558 473.284 136.444 472.581 140.308 472.915C144.178 473.248 147.881 474.607 151.048 476.852C152.704 478.019 154.418 479.024 156.147 480.04C157.095 480.769 158.407 480.81 159.402 480.144C162.548 477.93 165.032 474.904 166.6 471.394C166.72 471.019 166.787 470.628 166.808 470.237L166.808 470.237ZM127.772 406.071C127.611 404.8 127.527 403.529 127.272 402.279C126.595 399.081 125.194 398.357 122.173 399.513C121.658 399.711 121.168 399.946 120.668 400.18C117.168 401.789 113.782 403.482 110.282 404.998C102.1 408.539 93.7251 411.607 85.1891 414.19C83.8922 414.576 83.3818 415.086 83.6631 416.591C84.5433 421.435 85.1215 426.326 85.3871 431.237C85.4913 433.148 86.1007 432.966 87.3819 432.263C91.2153 430.185 95.1683 428.336 99.2153 426.721C104.059 424.773 108.746 422.44 113.601 420.56C117.642 419.044 121.33 416.721 124.45 413.737C126.575 411.732 127.778 408.94 127.772 406.023L127.772 406.071ZM187.6 138.991H186.913C186.913 143.761 187.043 148.548 186.913 153.319V153.313C186.756 155.35 187.663 157.324 189.314 158.532C195.506 164.371 202.47 169.334 210.011 173.287L232.902 184.089C234.49 184.849 236.178 185.386 237.917 185.688C241.855 186.391 245.829 184.667 248.011 181.313C249.693 178.48 248.725 176.646 245.501 176.485C242.641 176.474 239.787 176.313 236.948 175.995C219.042 173.568 203.074 163.475 193.199 148.345C191.111 145.324 189.444 142.069 187.6 138.944L187.6 138.991ZM149.1 125.141H148.694C148.579 125.537 148.439 125.933 148.334 126.308H148.329C143.996 146.053 141.647 166.188 141.329 186.401C141.298 187.188 141.616 187.948 142.194 188.479C144.465 190.766 146.324 193.422 147.699 196.339C148.121 197.281 148.517 197.891 149.673 197.573C150.829 197.261 150.314 196.266 150.277 195.636C149.845 188.474 149.965 181.308 150.277 174.146V174.152C151.053 160.548 150.944 146.906 149.965 133.318C149.72 130.599 149.392 127.844 149.1 125.152V125.141ZM105.283 444.808H105.278C101.663 443.136 98.6004 440.459 96.4598 437.094C96.1004 436.511 95.6421 436.652 95.2098 436.917V436.923C89.8243 439.219 84.6734 442.048 79.8458 445.365C79.2833 445.902 79.1322 446.172 79.5072 446.824C80.5802 448.719 81.627 450.636 82.6479 452.574C83.0229 453.287 83.3354 453.365 84.0228 452.912V452.917C87.9135 450.298 92.7676 449.548 97.2676 450.876C97.8406 451.115 98.5072 450.938 98.8874 450.443C100.794 448.298 102.94 446.381 105.278 444.725L105.283 444.808ZM183.147 464.396V463.849C183.147 462.964 183.334 461.771 182.48 461.401C181.626 461.026 181.022 462.078 180.418 462.636L180.412 462.63C177.563 465.552 175.459 469.115 174.277 473.016C172.199 478.63 168.386 483.438 163.391 486.735C161.652 487.901 161.574 489.615 161.199 491.271C161.022 492.031 161.688 492.125 162.282 492.031C163.845 491.802 165.355 491.297 166.74 490.526C176.287 485.125 182.454 475.261 183.142 464.313L183.147 464.396ZM117.663 203.063H117.658C117.277 205.073 117.095 207.115 117.111 209.162C116.855 211.938 116.725 214.74 116.621 217.526C116.621 218.271 116.621 219.24 117.684 219.344V219.349C121.605 219.922 125.616 219.521 129.35 218.182C131.22 216.891 132.246 214.682 132.017 212.417C131.918 212.136 131.725 211.901 131.47 211.74C126.814 209.011 122.267 206.12 117.658 203.037L117.663 203.063ZM78.1321 395.383C75.9602 394.82 75.9394 395.721 76.1009 397.143C76.2467 400.669 77.7259 404.008 80.2415 406.476C80.929 407.096 81.3405 407.435 82.1894 407.049C82.8092 406.794 83.4394 406.575 84.0801 406.398C87.9186 405.232 91.7675 404.065 95.6165 402.898H95.6217C96.1998 402.721 96.6894 402.331 96.9862 401.799C97.2102 401.44 96.7518 401.216 96.4237 401.055C90.9601 397.534 84.632 395.57 78.1317 395.383H78.1321ZM110.648 438.549C110.132 437.008 109.773 435.877 109.377 434.747C108.013 430.758 108.023 430.794 104.211 432.518C103.231 432.961 103.205 433.336 103.836 434.081C105.679 436.143 108.028 437.695 110.648 438.586L110.648 438.549ZM113.263 150.176C111.539 153.134 111.112 156.671 112.096 159.952L113.263 150.176Z" fill="#1C3448"/>
<path d="M265.653 475.813C269.987 480.141 273.659 485.084 276.554 490.48C277.471 491.985 278.57 493.371 279.82 494.61C282.554 497.267 286.586 498.089 290.143 496.72C292.018 496.058 293.476 494.569 294.101 492.683C295.674 488.912 296.435 484.912 297.601 481.017C298.711 474.949 303.154 470.022 309.081 468.287C312.461 467.1 316.221 467.892 318.836 470.345C321.45 472.803 322.471 476.506 321.492 479.954C318.773 493.079 317.211 506.427 314.492 519.553C313.513 524.219 312.414 528.782 310.992 533.307C310.643 534.474 310.513 534.964 312.159 534.578C317.2 533.156 322.57 535.287 325.263 539.781C327.534 543.125 328.789 547.052 328.877 551.089C328.961 555.13 327.877 559.109 325.752 562.542C325.403 563.172 325.028 563.792 324.586 564.583C325.747 564.62 326.903 564.458 328.013 564.12C334.284 562.536 340.669 566.26 342.377 572.495C343.059 575.416 342.809 578.484 341.663 581.255C338.356 588.984 332.398 595.282 324.861 599C317.09 602.995 308.345 604.709 299.642 603.948C295.46 603.625 291.256 603.677 287.085 604.11C285.449 604.308 283.866 604.818 282.418 605.615C267.877 613.683 251.24 617.183 234.678 615.662C221.787 615.146 209.375 610.599 199.199 602.667C197.897 601.573 196.512 600.578 195.059 599.693C188.189 595.38 183.881 587.959 183.559 579.86C182.673 571.761 182.819 563.584 184.001 555.521C186.335 535.557 190.335 515.854 193.559 496.021H193.553C194.934 487.38 195.402 478.614 194.954 469.876C194.116 459.454 194.314 448.98 195.548 438.6C196.434 428.85 200.246 419.6 206.48 412.058C212.105 405.871 219.86 402.038 228.194 401.334C231.47 400.975 231.532 401.079 232.1 397.834C234.23 385.824 236.345 373.818 238.433 361.808C242.537 338.146 246.782 314.505 251.163 290.886C256.866 260.356 262.991 229.917 268.324 199.313C271.392 181.729 273.829 164.058 275.793 146.324C276.11 142.256 276.793 138.22 277.834 134.272C279.032 127.803 284.834 123.225 291.402 123.563C294.064 123.423 296.746 123.47 299.418 123.563C318.606 123.798 337.803 124.048 357.006 124.308C367.574 124.449 378.137 125.183 388.714 124.975C392.532 124.688 396.365 124.688 400.183 124.975C404.386 125.204 407.776 128.49 408.141 132.688C408.922 142.464 411.782 151.855 413.146 161.516C414.86 173.673 416.355 185.839 417.287 198.068C419.469 226.672 420.167 255.339 421.37 283.98C422.084 300.616 423.704 317.183 425.558 333.715C427.636 351.751 429.5 369.824 430.495 387.966C431.058 398.335 431.73 408.695 432.36 419.07C432.558 423.132 432.417 427.205 431.938 431.247C431.917 432.325 431.469 433.351 430.693 434.096C429.917 434.84 428.875 435.247 427.797 435.226C426.724 435.106 425.745 434.554 425.084 433.7C424.427 432.846 424.141 431.757 424.297 430.689C424.584 415.121 423.979 399.553 422.5 384.059C422.094 374.595 421.125 365.157 420.25 355.731C420.099 354.142 419.771 353.923 418.349 354.632C406.75 360.486 395.251 366.523 383.839 372.736V372.741C382.521 373.361 381.687 374.694 381.713 376.147C380.734 392.481 379.463 408.871 378.682 425.262C378.276 433.699 376.885 442.038 376.021 450.439C375.87 451.945 375.682 453.45 375.484 454.955C375.125 457.721 373.422 459.319 371.12 459.085C369.99 458.908 368.99 458.262 368.359 457.309C367.729 456.351 367.526 455.179 367.807 454.07C368.75 445.434 369.896 436.824 370.62 428.179C371.412 418.669 371.786 409.138 372.406 399.616C372.698 395.007 372.943 390.397 373.365 385.804C373.495 384.393 373.036 383.914 371.776 383.554H371.771C361.87 380.872 351.812 378.809 341.651 377.382C327.921 375.237 314.104 373.674 300.317 371.992C298.896 371.815 298.578 372.237 298.484 373.591C297.854 383.471 296.713 393.309 296.151 403.2C296.114 403.747 296.031 404.283 295.896 404.815C295.609 406.778 293.833 408.169 291.854 407.976C289.937 407.846 288.458 406.236 288.484 404.309C288.489 400.481 288.693 396.658 289.104 392.856C289.625 386.2 290.182 379.539 290.771 372.883C290.901 371.482 290.641 370.925 289.057 370.737C275.125 369.128 261.197 367.518 247.385 365.034C246.151 364.81 245.729 365.117 245.505 366.388C243.599 377.565 241.656 388.737 239.672 399.909C239.474 401.076 239.812 401.238 240.838 401.357V401.347C246.151 401.915 251.375 403.118 256.401 404.93C256.974 405.154 257.568 405.399 258.104 405.597C262.552 406.972 265.922 410.623 266.937 415.159C269.776 424.055 272.114 433.107 273.937 442.263C275.047 449.477 275.125 456.81 274.172 464.045C273.833 469.279 270.521 473.857 265.651 475.816L265.653 475.813ZM346.951 131.827L294.451 131.223V131.217C292.992 131.217 291.539 131.306 290.097 131.488C288.034 131.65 286.294 133.087 285.748 135.082C284.815 137.967 284.201 140.952 283.914 143.973C282.654 154.03 281.487 164.098 280.123 174.145C277.893 190.478 275.003 206.811 271.956 222.967C266.893 249.733 261.784 276.483 256.789 303.27C253.57 320.619 250.581 338.025 247.456 355.395C247.185 356.854 247.57 357.296 248.914 357.505C258.248 359.062 267.622 360.4 277.045 361.52C290.905 363.187 304.79 364.635 318.638 366.411L318.633 366.406C336.873 368.249 354.956 371.4 372.742 375.833C373.768 376.124 374.05 375.833 374.071 374.864C374.071 374.374 374.154 373.895 374.185 373.406C374.836 362.906 375.446 352.312 376.144 341.765C377.654 319.344 379.18 296.916 380.727 274.495C381.914 256.979 383.597 239.516 385.768 222.11C388.664 199.031 392.768 176.178 397.727 153.464L397.732 153.469C400.112 147.334 400.732 140.657 399.529 134.183C399.133 132.959 398.862 132.422 397.638 132.454C393.696 132.547 389.742 132.756 385.795 132.677C372.045 132.433 358.336 132.084 346.951 131.829L346.951 131.827ZM287.743 505.16L289.503 507.389C291.951 510.488 293.977 513.894 295.534 517.525C296.456 519.368 295.727 521.603 293.899 522.556C292.128 523.41 289.993 522.795 288.94 521.129C288.55 520.587 288.211 520.009 287.914 519.405C286.008 515.597 283.597 512.066 280.753 508.905C278.034 506.207 275.586 503.254 273.44 500.082C271.211 496.186 268.55 492.556 266.3 488.67V488.676C263.826 484.764 260.711 481.301 257.081 478.431C255.602 477.191 253.93 476.202 252.133 475.488C243.367 472.181 236.857 464.686 234.81 455.54C233.154 447.571 234.784 439.269 239.336 432.524C243.618 425.717 249.102 419.748 255.519 414.904C257.155 413.623 257.175 413.56 255.17 412.758C247.681 409.831 239.67 408.487 231.639 408.805C228.301 408.868 224.999 409.503 221.874 410.68C213.707 413.935 207.619 420.946 205.541 429.487C202.577 440.107 201.546 451.169 202.494 462.153C203.348 475.133 202.738 488.164 200.686 501.003C197.093 521.429 193.035 541.836 191.165 562.508V562.513C190.41 567.758 190.676 573.102 191.947 578.248C192.811 581.633 195.488 584.253 198.889 585.04C200.035 585.378 201.202 585.628 202.389 585.774C216.431 586.998 230.572 586.498 244.493 584.279C250.379 583.581 255.384 579.654 257.467 574.107C257.806 573.326 258.155 572.555 258.447 571.774C261.447 563.055 263.915 554.159 265.842 545.138C266.056 544.435 265.874 543.669 265.363 543.133C259.53 536.274 254.327 528.945 248.785 521.862C246.41 519.102 244.243 516.159 242.311 513.071C241.732 512.19 241.535 511.123 241.753 510.091C241.972 509.065 242.592 508.175 243.477 507.607C245.311 506.544 247.66 507.159 248.738 508.987C253.555 515.321 258.352 521.669 263.191 527.982L263.196 527.977C267.92 534.612 273.29 540.763 279.227 546.341C281.368 548.424 283.972 549.981 286.821 550.893C289.284 551.757 292.029 551.237 294.008 549.528C296.347 547.476 298.227 544.961 299.534 542.143C301.086 538.711 302.404 535.184 303.492 531.58C306.545 520.648 308.852 509.523 310.388 498.274C311.034 494.878 311.394 491.43 311.461 487.971C311.461 486.581 311.133 485.966 309.701 486.899C308.263 487.831 306.529 488.93 304.873 489.815H304.868C303.519 490.513 302.534 491.753 302.149 493.221C301.253 496.664 299.279 499.721 296.513 501.961C293.935 503.805 290.904 504.904 287.742 505.133L287.743 505.16ZM382.535 364.44C382.837 364.372 383.128 364.279 383.42 364.174C394.936 358.039 406.404 351.81 418.196 346.205C419.035 345.809 419.108 345.226 419.014 344.434C418.701 341.913 418.41 339.372 418.128 336.84C416.681 323.809 415.175 310.778 414.373 297.69C413.347 280.83 412.894 263.95 412.191 247.07C411.128 221.591 410.082 196.097 406.649 170.794C406.123 166.898 405.483 163.013 404.842 158.695C404.55 159.346 404.41 159.549 404.352 159.768C401.915 171.039 399.571 182.32 397.727 193.695C394.556 213.179 392.066 232.741 390.259 252.388C388.488 271.8 387.352 291.273 385.998 310.721C385.035 324.773 384.102 338.836 383.212 352.909C382.951 356.659 382.753 360.461 382.535 364.42L382.535 364.44ZM199.561 593.267L204.171 596.683C209.29 600.814 215.186 603.886 221.504 605.715C232.749 608.444 244.431 608.897 255.853 607.043C264.484 605.532 272.755 602.423 280.233 597.86C287.171 594.063 293.39 589.074 298.597 583.126C303.535 577.272 308.55 571.49 313.649 565.787C315.707 563.631 317.514 561.245 319.04 558.683C321.582 554.553 321.764 549.391 319.519 545.095C318.998 543.574 317.764 542.413 316.222 541.98C314.681 541.548 313.024 541.907 311.795 542.934C310.405 543.725 309.754 545.137 308.717 546.21L308.712 546.215C305.41 549.772 301.853 553.084 298.071 556.131C294.477 558.876 289.806 559.772 285.451 558.543C281.629 557.486 278.097 555.584 275.113 552.98C274.295 552.314 273.493 551.626 272.545 550.834C272.368 551.439 272.254 551.777 272.17 552.116H272.175C270.451 559.751 268.274 567.277 265.649 574.657C264.311 579.173 261.696 583.214 258.123 586.282C254.545 589.355 250.16 591.329 245.493 591.97C241.587 592.563 237.675 593.136 233.743 593.371C222.373 594.464 210.926 594.428 199.56 593.266L199.561 593.267ZM266.993 454.68C267.035 449.414 266.525 444.154 265.467 438.997C264.431 433.367 262.717 427.883 260.368 422.664C259.889 421.612 259.483 421.393 258.598 422.242C257.025 423.758 255.322 425.138 253.78 426.685L253.775 426.69C249.118 430.987 245.504 436.289 243.207 442.195C241.134 447.675 241.535 453.784 244.295 458.945C247.061 464.111 251.921 467.835 257.624 469.153C259.473 469.695 261.462 469.429 263.108 468.429C264.749 467.429 265.9 465.783 266.27 463.893C266.868 460.861 267.113 457.767 266.993 454.679L266.993 454.68ZM296.629 595.973V595.968C300.468 596.322 304.338 596.322 308.176 595.968C317.624 595.203 326.291 590.442 332.015 582.89C333.687 580.942 334.713 578.52 334.952 575.963C335.161 574.833 334.827 573.671 334.057 572.817C333.291 571.963 332.166 571.52 331.02 571.609C329.255 571.572 327.499 571.885 325.854 572.531C322.494 573.697 319.192 575.135 315.822 576.286H315.817C314.671 576.65 313.645 577.327 312.854 578.234C307.921 584.562 302.494 590.494 296.63 595.968L296.629 595.973ZM306.754 479.645V479.64C308.64 478.479 310.9 478.078 313.067 478.531C313.812 478.765 313.999 478.322 314.036 477.666C314.036 476.5 313.64 475.848 312.416 475.729L312.411 475.734C309.864 475.614 307.546 477.213 306.755 479.64L306.754 479.645Z" fill="#1C3448"/>
<path d="M457.147 469.333C448.178 461.635 442.985 450.421 442.912 438.604C441.428 426.5 442.724 414.219 446.704 402.692C449.449 393.645 455.417 385.921 463.48 380.979C472.745 375.833 483.74 374.786 493.813 378.098C501.704 379.994 508.834 384.244 514.25 390.286C519.672 396.333 523.12 403.879 524.146 411.931C526.282 423.061 524.704 434.582 519.651 444.729C517.412 449.395 514.985 453.932 512.651 458.551C511.141 461.4 510.042 464.447 509.386 467.603C509.125 468.614 509.157 469.671 509.48 470.661C511.042 474.395 511.683 478.421 513.542 482.093V482.098C516.12 487.874 517.698 494.046 518.209 500.353C519.808 512.035 520.433 523.826 520.084 535.607C519.98 545.212 518.662 554.769 516.167 564.039C515.495 566.513 514.464 568.873 513.11 571.039C512.49 572.071 512.302 573.305 512.584 574.472C513.704 580.414 513.203 586.55 511.141 592.237C509.073 597.919 505.521 602.945 500.849 606.789C496.38 610.221 490.969 612.211 485.344 612.482C468.667 614.18 451.875 610.768 437.183 602.706C436.276 602.159 435.183 602.023 434.172 602.331C432.021 602.768 429.818 602.867 427.641 602.622C419.297 602.669 411.021 601.201 403.209 598.284C393.287 594.529 385.922 586.034 383.61 575.685C383.116 573.862 382.97 571.961 383.178 570.086C383.178 565.383 386.86 561.503 391.553 561.253C387.803 555.414 387.36 548.05 390.386 541.805C394.496 536.258 401.313 533.409 408.146 534.383C408.146 533.685 407.61 533.545 407.282 533.216C399.709 526.362 392.896 518.711 386.97 510.399C382.907 505.04 380.36 498.691 379.595 492.014C378.673 485.436 381.157 478.842 386.189 474.514C388.439 472.342 391.532 471.285 394.642 471.628C397.746 471.977 400.537 473.686 402.251 476.295C405.147 480.649 407.418 485.384 408.996 490.368C410.069 493.134 411.121 495.92 412.261 498.665V498.66C412.798 500.092 413.709 501.353 414.902 502.311C416.157 503.233 417.839 503.332 419.194 502.561C420.402 502.082 421.126 500.832 420.933 499.551C421.11 495.874 422.569 492.374 425.064 489.665C427.694 486.551 430.808 483.868 434.277 481.723C441.121 477.202 448.365 473.327 455.917 470.139C456.339 469.936 456.808 469.879 457.146 469.332L457.147 469.333ZM512.449 529.183H512.444C512.408 520.74 511.876 512.308 510.861 503.928C510.382 498.178 509.21 492.506 507.361 487.043C505.923 482.512 502.533 478.86 498.116 477.095C493.777 475.23 489.043 474.475 484.34 474.897C477.168 475.782 469.949 476.199 462.72 476.137C461.746 476.168 460.788 476.402 459.907 476.824C451.517 480.215 443.543 484.558 436.147 489.772C433.897 491.324 431.923 493.241 430.314 495.444C428.767 497.459 428.194 500.048 428.746 502.527C430.272 508.61 433.033 514.314 436.845 519.292C437.121 519.777 437.611 520.105 438.163 520.178C438.72 520.251 439.278 520.063 439.668 519.662C441.106 518.647 442.444 517.496 443.668 516.235C449.153 510.704 454.236 504.824 459.278 498.912V498.907C459.887 498.147 460.559 497.438 461.288 496.798C462.715 495.548 464.845 495.538 466.288 496.777C467.725 498.011 468.038 500.121 467.017 501.72C466.632 502.345 466.205 502.939 465.731 503.496C459.975 510.574 455.429 518.558 452.277 527.121C449.267 535.356 447.715 543.97 445.512 552.413C444.835 555.174 445.454 558.095 447.194 560.345C450.48 565.158 455.298 568.715 460.866 570.439C472.684 573.84 485.069 574.793 497.267 573.252C501.439 572.908 505.101 570.335 506.845 566.528C508.012 564.262 508.882 561.856 509.444 559.366C511.585 549.45 512.59 539.32 512.444 529.173L512.449 529.183ZM501.402 469.975H501.397C502.048 463.376 504.194 457.011 507.673 451.365C509.366 448.063 511.069 444.787 512.668 441.449C517.085 432.558 518.418 422.449 516.46 412.714C515.673 406.834 513.272 401.282 509.522 396.678C505.772 392.079 500.819 388.605 495.216 386.652C492.413 385.652 489.523 384.918 486.58 384.459C479.804 383.116 472.768 384.355 466.851 387.923C460.934 391.496 456.564 397.147 454.59 403.767C454.32 404.491 454.309 404.934 455.137 405.366C457.83 406.814 460.101 408.934 461.731 411.517C464.064 414.725 466.174 418.038 468.403 421.303C470.757 424.819 474.221 427.449 478.236 428.772C480.221 429.35 482.122 430.178 483.898 431.231C486.382 432.668 487.861 435.366 487.736 438.231C487.418 441.892 485.908 445.345 483.429 448.053C481.247 450.902 478.903 453.606 476.59 456.35H476.596C473.793 459.132 473.486 463.559 475.882 466.699C476.231 467.538 477.148 467.996 478.028 467.772C483.038 466.866 488.168 466.819 493.194 467.632C495.986 468.184 498.731 468.965 501.398 469.965L501.402 469.975ZM484.522 581.532H484.517C476.991 581.647 469.481 580.792 462.173 579.001C453.293 577.022 445.517 571.693 440.46 564.126C438.121 560.819 437.111 556.746 437.637 552.73C437.861 551.282 437.231 550.668 436.048 550.116H436.054C429.767 547.194 423.168 545.012 416.382 543.616C412.048 542.402 407.527 542.006 403.048 542.449C400.652 542.402 398.402 543.579 397.074 545.569C395.746 547.564 395.533 550.095 396.501 552.282C397.741 557.074 400.147 561.48 403.501 565.116C414.21 577.678 427.1 588.198 441.548 596.173C454.678 603.267 469.631 606.267 484.48 604.798C490.537 604.225 496.126 601.298 500.053 596.652C503.98 592.001 505.928 586.001 505.48 579.934C505.48 578.975 505.178 578.767 504.314 579.199C502.715 579.934 501.027 580.46 499.298 580.772C494.402 581.481 489.454 581.731 484.517 581.522L484.522 581.532ZM421.522 531.647H421.517C425.491 531.324 429.246 529.683 432.179 526.98C432.632 526.605 432.949 526.293 432.34 525.683C428.512 521.438 425.496 516.522 423.449 511.183C422.887 509.902 422.47 509.49 420.986 510.016H420.991C416.746 511.751 411.866 510.636 408.798 507.23C406.72 505.001 405.132 502.36 404.132 499.48C402.533 495.418 401.028 491.313 399.465 487.251V487.256C398.653 484.964 397.496 482.808 396.033 480.86C395.58 479.996 394.731 479.418 393.762 479.303C392.793 479.194 391.835 479.563 391.194 480.303C389.194 482.027 387.887 484.417 387.517 487.032C386.845 491.766 387.793 496.584 390.215 500.704C392.59 505.298 395.559 509.558 399.043 513.376C403.59 519.001 408.668 524.173 414.21 528.824C416.22 530.616 418.814 531.616 421.502 531.636L421.522 531.647ZM466.741 465.975H466.736C466.809 465.813 466.856 465.647 466.876 465.475C466.876 465.23 466.85 464.985 466.793 464.751C465.955 461.032 466.699 457.131 468.845 453.98C470.074 452.094 471.439 450.308 472.929 448.626C474.949 446.433 476.804 444.089 478.486 441.626C480.689 438.126 480.632 437.751 476.746 436.49C470.314 434.464 464.809 430.22 461.216 424.511C460.049 422.62 458.752 420.756 457.507 418.886C456.33 416.975 454.955 415.193 453.403 413.568C453.028 413.209 452.669 412.589 452.075 412.808C451.481 413.032 451.7 413.646 451.596 414.115H451.591C449.836 423.068 449.653 432.261 451.054 441.277C451.612 446.662 453.263 451.881 455.908 456.605C458.471 460.761 462.247 464.026 466.726 465.964L466.741 465.975ZM423.673 594.657C423.449 593.735 422.819 593.491 422.376 593.189C415.131 587.678 408.324 581.61 402.022 575.049C399.324 572.569 396.147 570.674 392.688 569.481C391.522 568.981 391.136 569.481 390.975 570.543H390.969C390.797 571.996 390.933 573.465 391.381 574.861C392.751 580.075 395.891 584.658 400.256 587.819C407.287 592.2 415.392 594.564 423.672 594.658L423.673 594.657ZM427.559 538.387V538.392C431.204 539.611 434.783 541.027 438.277 542.637C439.585 543.277 439.913 542.861 440.168 541.658C441.137 536.965 442.355 532.329 443.835 527.772C444.204 527.163 444.225 526.397 443.892 525.767C439.824 531.522 434.121 535.923 427.523 538.392L427.559 538.387Z" fill="#1C3448"/>
<path d="M288.933 324.787C283.949 324.917 278.965 324.568 274.048 323.74C271.642 323.573 269.491 322.162 268.387 320.016C267.277 317.865 267.376 315.297 268.637 313.24C270.538 309.235 272.803 305.422 275.413 301.839C280.194 294.662 285.058 287.557 289.902 280.432C290.272 279.875 290.699 279.364 291.178 278.901C291.99 277.953 293.23 277.484 294.47 277.651C295.704 277.823 296.772 278.609 297.303 279.745C301.162 286.562 304.006 293.906 305.735 301.547C307.319 306.589 308.194 311.823 308.339 317.099C308.47 318.985 307.834 320.844 306.574 322.25C305.313 323.657 303.537 324.5 301.652 324.578C300.631 324.719 299.605 324.787 298.574 324.787C295.47 324.813 292.376 324.787 288.933 324.787L288.933 324.787ZM293.439 289.213V289.219C293.194 289.437 292.97 289.682 292.761 289.942C287.397 297.807 281.97 305.636 277.032 313.776C275.48 316.344 275.537 316.458 278.584 316.692C285.433 317.208 292.292 317.005 299.152 317.078C300.387 317.078 300.715 316.588 300.631 315.442H300.637C300.095 310.745 299.121 306.104 297.73 301.582C296.751 297.317 295.314 293.171 293.439 289.218L293.439 289.213Z" fill="#1C3448"/>
<path d="M315.453 324.293C315.511 323.069 315.99 321.903 316.807 320.991C321.297 315.335 325.766 309.653 330.61 304.298C331.126 303.902 331.459 303.303 331.516 302.652C331.574 301.996 331.355 301.35 330.912 300.866C328.819 297.386 326.522 294.027 324.037 290.813C323.261 290.095 322.819 289.089 322.819 288.032C322.819 286.98 323.261 285.97 324.037 285.256C324.86 284.558 325.928 284.215 327.006 284.319C328.079 284.418 329.069 284.954 329.746 285.793C332.319 288.621 334.537 291.756 336.334 295.126C337.058 296.293 337.501 296.527 338.506 295.381V295.387C341.032 292.506 343.73 289.777 346.579 287.22C347.308 286.553 348.084 285.954 348.912 285.423C350.517 284.256 352.746 284.538 354.011 286.064C355.246 287.605 355.11 289.829 353.694 291.209C352.782 292.189 351.735 293.027 350.756 293.928C347.772 296.704 345.084 299.762 342.277 302.715V302.709C341.975 302.959 341.793 303.314 341.756 303.699C341.725 304.09 341.85 304.47 342.1 304.767C344.938 310.199 348.22 315.392 351.923 320.283C352.313 320.751 352.647 321.262 352.912 321.809C353.824 323.408 353.407 325.434 351.944 326.548C350.496 327.673 348.444 327.59 347.095 326.35C345.991 325.293 345.017 324.121 344.178 322.85C341.47 319.189 339.053 315.319 336.954 311.272C336.324 310.106 335.938 309.72 334.902 311.027C331.168 315.694 327.308 320.361 323.506 325.027H323.501C322.855 325.929 322.069 326.715 321.168 327.361C320.001 328.205 318.438 328.262 317.214 327.501C316.069 326.85 315.392 325.611 315.454 324.293L315.453 324.293Z" fill="#1C3448"/>
<path d="M347.84 202.413C339.673 201.387 331.111 200.314 322.512 199.205C319.804 198.856 317.111 198.481 314.429 197.981C312.33 197.794 310.773 195.96 310.929 193.861C311.033 192.814 311.575 191.861 312.424 191.236C313.267 190.611 314.34 190.372 315.371 190.585C320.679 191.132 325.955 191.882 331.251 192.544L347.667 194.606H347.662C348.568 194.695 349.459 194.856 350.334 195.085C352.193 195.512 353.428 197.278 353.193 199.169C352.969 201.065 351.334 202.476 349.428 202.414C349.006 202.424 348.667 202.414 347.839 202.414L347.84 202.413Z" fill="#1C3448"/>
<path d="M312.973 248.587H304.609C302.838 248.706 301.218 247.597 300.687 245.904C300.187 244.477 300.656 242.894 301.854 241.972C302.729 241.295 303.807 240.93 304.911 240.936L320.547 240.259C320.969 240.227 321.396 240.227 321.818 240.259C322.859 240.191 323.885 240.555 324.646 241.269C325.412 241.983 325.849 242.977 325.859 244.024C325.865 245.066 325.443 246.071 324.688 246.795C323.938 247.519 322.917 247.899 321.875 247.852C318.911 248.087 315.938 248.18 312.974 248.331L312.973 248.587Z" fill="#1C3448"/>
</svg>
