<svg width="680" height="642" viewBox="0 0 680 642" fill="none" xmlns="http://www.w3.org/2000/svg">
<path d="M679.693 630.467L603.376 429.96C602.939 428.825 601.98 427.976 600.798 427.679L413.438 380.091L413.198 342.012C413.177 341.705 413.11 341.398 413.006 341.106C432.943 319.742 446.35 293.117 451.646 264.371C451.87 264.257 452.146 264.288 452.349 264.126C464.505 254.418 471.479 237.626 473.067 213.881C472.755 197.012 467.984 186.897 460.302 186.798L460.203 186.804C459.932 186.804 459.682 186.918 459.416 186.939C459.531 186.507 459.625 186.127 459.744 185.647V185.642C465.849 163.173 469.729 140.153 471.328 116.923C471.328 114.517 471.192 112.132 470.948 109.772V109.767C468.557 96.5172 463.416 83.9072 455.86 72.7619C453.412 68.7671 450.766 64.8556 448.042 60.814L447.646 60.2254L467.995 57.5224L442.61 42.001C430.86 34.7874 419.553 27.8504 408.151 21.0477H408.146C385.714 6.97437 359.589 -0.072293 333.119 0.81304C296.317 2.20891 268.489 16.0584 250.411 41.969C250.073 42.4534 249.536 43.2555 249.104 43.9117C248.12 44.2607 246.792 44.7503 246.073 45.0992C232.453 51.2555 221.209 61.6872 214.057 74.8125C206.905 87.9379 204.234 103.042 206.448 117.823C209.344 136.954 214.161 170.725 216.198 185.021C209.172 186.041 204.812 195.89 204.521 212.229C206.109 235.645 213.083 252.437 225.239 262.15C225.338 262.233 225.484 262.202 225.588 262.275L225.593 262.28C231.088 291.759 245.109 318.983 265.911 340.583C265.734 341.025 265.635 341.494 265.629 341.973L265.4 380.052L78.0537 427.677C76.8662 427.974 75.8974 428.839 75.4703 429.99L1.16367 630.497C0.450121 632.424 1.43449 634.57 3.36673 635.288C3.77819 635.445 4.2209 635.523 4.66362 635.518C6.22615 635.518 7.62202 634.549 8.16362 633.085L81.7836 434.432L251.144 391.416L206.821 422.192C205.534 423.083 204.941 424.676 205.331 426.192L260.159 637.219H260.154C260.581 638.87 262.071 640.021 263.769 640.021C264.086 640.021 264.404 639.979 264.711 639.891C266.706 639.375 267.899 637.338 267.383 635.344L213.222 426.837L266.982 389.504L302.351 637.81C302.648 639.841 304.534 641.253 306.57 640.961C308.606 640.675 310.023 638.795 309.742 636.758L274.649 390.518C284.935 396.253 295.899 400.675 307.285 403.69L319.686 438.127L308.613 457.669H308.618C308.259 458.294 308.097 459.007 308.139 459.726L318.404 635.486C318.519 637.465 320.16 639.007 322.139 639.002H322.363C323.352 638.944 324.279 638.497 324.936 637.757C325.592 637.017 325.93 636.043 325.873 635.054L315.665 460.387L326.618 441.054V441.059C334.878 438.267 343.801 438.106 352.154 440.601L363.576 460.762L346.592 636.922C346.493 637.912 346.795 638.896 347.425 639.656C348.055 640.422 348.967 640.906 349.951 641C350.071 641.005 350.191 641.005 350.311 641C352.238 641.011 353.857 639.547 354.045 637.625L371.149 460.292C371.222 459.532 371.055 458.766 370.68 458.099L358.816 437.193L375.326 402.729C375.384 402.609 375.326 402.473 375.384 402.348V402.343C385.795 399.26 395.878 395.14 405.466 390.041L363.726 636.654C363.383 638.686 364.752 640.613 366.789 640.957C366.992 640.993 367.205 641.009 367.414 641.009C369.232 641.003 370.784 639.691 371.086 637.905L413.05 389.811L468.528 428.327L414.096 637.327C413.846 638.285 413.987 639.301 414.487 640.155C414.992 641.009 415.81 641.629 416.768 641.879C417.081 641.957 417.398 641.999 417.716 641.999C419.414 641.994 420.898 640.848 421.325 639.207L476.413 427.674C476.804 426.158 476.205 424.559 474.919 423.674L428.836 391.669L597.076 434.398L672.707 633.091C673.441 635.018 675.597 635.987 677.524 635.253C679.451 634.524 680.42 632.367 679.691 630.44L679.693 630.467ZM327.52 370.133H352.911C372.645 369.487 391.457 361.613 405.775 348.008L405.978 380.795H405.973C385.618 393.097 362.415 399.893 338.639 400.508C330.363 400.482 322.118 399.539 314.051 397.706C313.15 397.409 312.223 397.169 311.332 396.846C311.077 396.8 310.812 396.779 310.551 396.794C297.254 393.258 284.562 387.763 272.879 380.497L273.082 347.382C287.88 361.3 307.222 369.382 327.52 370.132L327.52 370.133ZM446.239 242.175C446.239 296.415 403.176 362.664 352.905 362.664H327.52C277.312 362.664 232.692 297.336 231.307 244.623V210.929C231.307 210.414 231.218 209.961 231.182 209.434V195.018H238.124L237.63 190.841C237.63 190.841 237.182 187.154 237.005 185.966C235.083 170.488 238.416 154.811 246.463 141.451C252.718 128.82 264.427 119.757 278.218 116.872C281.436 115.778 284.91 115.716 288.165 116.69C318.592 140.278 358.635 147.502 395.384 136.039C396.879 135.56 400.759 133.987 400.759 133.987L409.936 130.252L400.572 126.997C400.572 126.997 395.342 125.2 394.421 124.758V124.752C392.749 124.002 391.139 123.101 389.624 122.065C387.514 120.695 385.785 118.815 384.598 116.601C396.306 116.669 407.728 120.263 417.368 126.914C443.286 146.856 439.447 190.471 439.41 190.908L439.014 195.002H446.3C446.3 195.122 446.232 195.221 446.232 195.346L446.239 242.175ZM460.217 194.237C461.509 194.237 465.337 199.144 465.613 213.649L465.618 213.655C465.483 227.343 461.363 240.691 453.759 252.071V213.242C454.327 199.846 458.592 194.242 460.212 194.242L460.217 194.237ZM221.351 77.0813C227.767 65.9094 237.564 57.06 249.335 51.8213C250.298 51.3525 252.658 50.5869 252.689 50.5817L253.934 50.1703L254.642 49.0713C254.642 49.0713 255.934 47.1077 256.538 46.2484C273.444 22.019 298.584 9.59235 333.444 8.27502H333.45C358.471 7.47294 383.163 14.1396 404.382 27.431C415.767 34.228 427.038 41.139 438.731 48.3377L446.137 52.8793L434.809 54.3741L441.866 64.9522C444.533 68.9158 447.096 72.7386 449.507 76.6449L449.502 76.6397C456.46 86.8479 461.236 98.3743 463.533 110.509C463.751 112.639 463.866 114.785 463.876 116.946C462.272 139.54 458.475 161.925 452.543 183.79L451.595 187.525H447.116C447.527 175.416 446.475 139.848 421.971 120.989H421.965C411.085 113.353 398.132 109.213 384.84 109.124C382.824 108.989 379.71 108.958 379.71 108.958H375.902L375.939 112.76C376.491 119.14 380.017 124.885 385.46 128.26C386.527 128.989 387.606 129.645 388.694 130.239C355.241 139.062 319.59 131.755 292.309 110.479C287.382 108.219 281.783 107.89 276.626 109.573C260.735 112.937 247.23 123.333 239.913 137.833C231.048 152.619 227.413 169.963 229.585 187.067L229.658 187.583H224.1C222.486 176.25 217.001 137.676 213.835 116.739H213.84C211.782 103.051 214.434 89.0724 221.35 77.0831L221.351 77.0813ZM223.845 250.108C216.278 238.837 212.158 225.603 211.986 212.029C212.257 197.613 215.856 192.617 217.215 192.332L217.596 194.988H220.09C222.325 199.504 223.554 204.452 223.679 209.488V242.15C223.679 242.988 223.793 243.842 223.814 244.681L223.845 250.108ZM352.548 432.935C343.793 430.648 334.579 430.784 325.892 433.32L316.127 406.184V406.189C332.195 410.273 349.012 410.424 365.153 406.627L352.548 432.935ZM378.985 194.695C377.381 195.976 377.111 198.309 378.381 199.924C379.163 200.882 380.371 201.382 381.6 201.252V201.325C381.6 207.554 386.652 212.606 392.881 212.606C399.116 212.606 404.163 207.554 404.163 201.325C404.163 201.184 404.126 201.049 404.116 200.908H404.121C404.538 201.127 404.991 201.273 405.454 201.33C407.084 201.335 408.527 200.283 409.022 198.736C409.517 197.184 408.949 195.492 407.621 194.554C403.61 191.174 398.527 189.33 393.277 189.356C388.032 189.382 382.964 191.273 378.985 194.695L378.985 194.695ZM392.871 205.148H392.876C391.329 205.148 389.939 204.215 389.35 202.788C388.756 201.366 389.084 199.721 390.178 198.632C391.272 197.544 392.913 197.215 394.34 197.809C395.767 198.403 396.694 199.794 396.689 201.34C396.689 203.45 394.98 205.153 392.876 205.153L392.871 205.148ZM301.125 200.122C301.365 200.169 301.573 200.34 301.813 200.34H301.818C303.443 200.34 304.876 199.288 305.37 197.742C305.865 196.2 305.303 194.512 303.985 193.57C299.974 190.184 294.896 188.335 289.646 188.356C284.401 188.377 279.334 190.268 275.354 193.684C274.005 194.788 273.594 196.674 274.365 198.236C275.141 199.799 276.885 200.617 278.583 200.21C278.604 206.44 283.672 211.471 289.896 211.445C292.886 211.434 295.75 210.236 297.86 208.117C299.964 205.992 301.141 203.122 301.13 200.132L301.125 200.122ZM289.844 203.945H289.849C288.308 203.945 286.917 203.018 286.323 201.591C285.735 200.163 286.058 198.523 287.152 197.434C288.24 196.34 289.886 196.012 291.308 196.606C292.735 197.195 293.662 198.585 293.662 200.132C293.667 201.143 293.266 202.117 292.547 202.835C291.834 203.549 290.86 203.955 289.85 203.955L289.844 203.945ZM319.798 253.565C318.839 251.736 319.537 249.481 321.36 248.518C323.188 247.559 325.443 248.257 326.407 250.08C328.662 255.065 333.412 258.461 338.86 258.966C345.282 258.835 351.157 255.335 354.329 249.752C355.475 248.039 357.793 247.575 359.512 248.721C361.225 249.867 361.689 252.184 360.543 253.898C356.137 261.367 348.241 266.091 339.579 266.45H338.48C334.501 266.148 330.678 264.799 327.397 262.533C324.11 260.268 321.49 257.174 319.798 253.565L319.798 253.565ZM378.448 292.086V292.081C378.422 294.128 376.761 295.773 374.714 295.773H374.677L302.995 295.029V295.023C300.937 295.013 299.271 293.336 299.281 291.273C299.292 289.211 300.974 287.549 303.036 287.56H303.083L374.766 288.305H374.761C375.755 288.315 376.703 288.726 377.396 289.44C378.089 290.154 378.469 291.117 378.448 292.112L378.448 292.086ZM352.615 318.643C351.521 320.388 349.224 320.925 347.474 319.836C341.828 316.508 334.797 316.576 329.214 320.018C327.36 320.93 325.115 320.164 324.199 318.31C323.287 316.456 324.048 314.211 325.907 313.294C329.777 311.018 334.193 309.831 338.688 309.862C343.178 309.893 347.579 311.143 351.417 313.477C352.266 313.998 352.87 314.841 353.094 315.81C353.318 316.779 353.146 317.8 352.615 318.643L352.615 318.643ZM418.584 173.79C419.241 174.535 419.574 175.509 419.511 176.504C419.444 177.493 418.991 178.42 418.241 179.071C417.491 179.728 416.517 180.056 415.522 179.983C414.532 179.915 413.61 179.457 412.959 178.702C404.918 169.493 392.429 168.123 374.782 174.467C373.839 174.853 372.787 174.832 371.86 174.415C370.933 174.004 370.214 173.228 369.87 172.274C369.527 171.321 369.584 170.264 370.032 169.358C370.485 168.446 371.282 167.759 372.251 167.451C392.839 160.035 408.428 162.165 418.573 173.79L418.584 173.79ZM269.931 178.269C268.582 179.795 266.254 179.957 264.707 178.629C263.957 177.978 263.499 177.056 263.431 176.066C263.363 175.076 263.697 174.102 264.348 173.358C274.504 161.738 290.088 159.603 310.686 167.019C312.624 167.717 313.629 169.858 312.931 171.795C312.233 173.738 310.093 174.743 308.155 174.045C290.462 167.696 277.952 169.056 269.926 178.248L269.931 178.269ZM126.744 507.002V631.257C126.744 633.32 125.072 634.992 123.01 634.992C120.947 634.992 119.275 633.32 119.275 631.257V507.002C119.275 504.94 120.947 503.268 123.01 503.268C125.072 503.268 126.744 504.94 126.744 507.002V507.002ZM555.784 503.976V629.779C555.784 631.842 554.112 633.514 552.05 633.514C549.987 633.514 548.315 631.842 548.315 629.779V503.982C548.315 501.919 549.987 500.247 552.05 500.247C554.112 500.247 555.784 501.919 555.784 503.982V503.976Z" fill="#1C3448"/>
</svg>
